<?xml version="1.0" standalone="no"?>
<!DOCTYPE svg PUBLIC "-//W3C//DTD SVG 20010904//EN"
 "http://www.w3.org/TR/2001/REC-SVG-20010904/DTD/svg10.dtd">
<svg version="1.0" xmlns="http://www.w3.org/2000/svg"
 width="273.000000pt" height="273.000000pt" viewBox="0 0 273.000000 273.000000"
 preserveAspectRatio="xMidYMid meet">
<metadata>
Created by potrace 1.11, written by Peter Selinger 2001-2013
</metadata>
<g transform="translate(0.000000,273.000000) scale(0.100000,-0.100000)"
fill="#000000" stroke="none">
<path d="M325 1779 c-96 -23 -212 -106 -263 -190 -74 -122 -80 -289 -13 -414
51 -95 168 -189 267 -213 16 -4 70 -7 119 -6 74 1 100 5 148 27 31 14 57 29
57 34 0 4 -25 31 -56 59 -49 46 -60 51 -87 46 -70 -12 -132 -6 -181 18 -156
78 -192 279 -73 408 11 12 47 35 78 51 118 59 255 15 325 -105 30 -50 41 -132
26 -187 -11 -38 -10 -38 49 -98 33 -34 62 -59 64 -57 3 2 16 31 31 63 53 121
39 274 -36 388 -41 60 -130 131 -200 158 -61 24 -189 33 -255 18z"/>
<path d="M939 1778 c-5 -116 -3 -148 11 -148 8 -1 144 -2 302 -3 273 -2 288
-3 315 -23 16 -12 34 -39 42 -64 12 -37 12 -46 -3 -76 -8 -19 -30 -43 -48 -54
-31 -19 -51 -20 -325 -20 l-293 0 -1 -25 c-1 -32 -1 -89 0 -117 l1 -23 208 -1
c170 -1 214 -4 244 -17 85 -38 141 -116 155 -212 l6 -45 83 0 c96 0 93 -3 74
101 -11 58 -65 179 -81 179 -21 0 -6 20 44 57 76 58 111 127 111 218 0 87 -26
150 -86 206 -78 73 -102 77 -450 78 -246 2 -308 -1 -309 -11z"/>
<path d="M2191 1774 c-80 -21 -147 -61 -204 -124 -177 -194 -139 -489 83 -632
76 -49 150 -66 293 -67 l127 -2 0 81 c0 44 -3 80 -7 81 -5 0 -60 2 -123 3
-166 4 -231 38 -286 147 -64 127 -7 282 126 342 40 18 69 20 280 23 129 1 237
2 240 3 3 1 5 36 5 79 l0 77 -240 1 c-177 1 -254 -2 -294 -12z"/>
<path d="M2304 1452 c-20 -3 -21 -9 -21 -83 l1 -79 137 0 137 0 1 -142 c0 -79
0 -155 0 -170 l1 -28 83 0 82 0 0 244 c0 135 -3 248 -7 251 -7 7 -372 13 -414
7z"/>
<path d="M550 1245 c-35 -35 -50 -57 -45 -67 14 -24 220 -228 230 -228 6 0 35
25 65 55 l55 55 -110 111 c-61 60 -117 114 -126 119 -12 7 -28 -4 -69 -45z"/>
</g>
</svg>
