<?xml version="1.0" standalone="no"?>
<!DOCTYPE svg PUBLIC "-//W3C//DTD SVG 20010904//EN"
 "http://www.w3.org/TR/2001/REC-SVG-20010904/DTD/svg10.dtd">
<svg version="1.0" xmlns="http://www.w3.org/2000/svg"
 width="404.000000pt" height="404.000000pt" viewBox="0 0 404.000000 404.000000"
 preserveAspectRatio="xMidYMid meet">
<metadata>
Created by potrace 1.11, written by Peter Selinger 2001-2013
</metadata>
<g transform="translate(0.000000,404.000000) scale(0.100000,-0.100000)"
fill="#000000" stroke="none">
<path d="M949 3971 c0 -3 -2 -15 -4 -26 -1 -11 -6 -42 -9 -70 -4 -27 -9 -61
-11 -75 -2 -14 -7 -45 -10 -70 -4 -25 -8 -56 -10 -70 -16 -105 -22 -148 -29
-210 -3 -25 -8 -56 -11 -70 -2 -13 -7 -49 -10 -80 -3 -31 -7 -67 -10 -80 -3
-14 -7 -42 -10 -64 -3 -21 -7 -50 -9 -65 -8 -45 -19 -134 -22 -171 -1 -19 -3
-35 -4 -35 -4 0 -13 -71 -14 -105 0 -19 -4 -37 -7 -40 -4 -3 -10 -36 -14 -75
-11 -107 -13 -120 -15 -120 -1 0 -3 -11 -5 -25 -1 -14 -6 -52 -11 -85 -4 -33
-8 -72 -8 -87 -1 -16 -3 -28 -6 -28 -3 0 -6 -8 -6 -17 -2 -34 -14 -138 -19
-153 -4 -13 -10 -59 -20 -145 -2 -16 -6 -43 -9 -60 -2 -16 -7 -52 -11 -80 -8
-69 -13 -106 -19 -135 -4 -24 -13 -84 -22 -160 -2 -19 -6 -48 -9 -65 -3 -16
-7 -48 -9 -70 -3 -22 -7 -53 -10 -70 -9 -55 -18 -120 -21 -150 -2 -16 -4 -30
-5 -30 0 0 -3 -13 -5 -30 -9 -73 -15 -123 -20 -155 -3 -19 -7 -51 -9 -70 -2
-19 -7 -51 -10 -70 -3 -19 -8 -51 -11 -70 -12 -103 -21 -160 -31 -215 -2 -11
-6 -40 -8 -65 -3 -25 -7 -56 -10 -70 -2 -14 -7 -50 -11 -81 -3 -31 -7 -66 -9
-76 -4 -19 -13 -86 -21 -163 -4 -30 -3 -32 7 -16 6 11 19 40 28 65 39 102 83
207 91 216 5 5 9 14 9 21 0 6 6 27 14 45 8 19 15 39 16 44 1 6 7 19 13 30 18
33 139 329 139 343 1 6 4 12 8 12 4 0 7 6 7 13 0 6 8 30 18 52 10 22 19 43 20
48 2 4 4 9 5 12 1 3 3 8 4 13 1 4 10 24 19 46 9 21 17 40 17 42 0 2 9 24 21
48 11 25 22 51 23 58 2 7 13 35 24 61 12 27 25 60 28 73 3 13 9 24 13 24 4 0
8 6 9 13 1 16 25 81 55 148 13 30 32 78 43 107 10 28 22 52 26 52 4 0 7 3 7 8
-1 4 0 10 1 15 1 4 3 10 5 15 1 4 6 18 12 32 8 20 96 238 142 355 5 11 9 23 9
28 1 4 9 22 19 40 9 17 18 34 18 37 2 14 40 106 47 116 5 7 10 20 13 30 3 18
21 64 49 129 8 17 44 107 81 200 38 94 71 172 74 175 3 3 7 13 9 22 2 10 16
48 31 85 30 72 43 105 46 113 2 7 24 62 32 80 3 8 7 17 8 20 1 3 7 19 14 35 6
17 14 36 16 43 3 8 10 10 19 5 13 -8 112 -94 246 -216 8 -8 60 -54 115 -103
55 -49 102 -91 105 -94 3 -3 38 -35 79 -70 41 -36 95 -84 120 -107 l45 -42
-23 -20 c-30 -26 -79 -66 -186 -150 -49 -39 -97 -77 -105 -84 -8 -7 -44 -35
-80 -62 -36 -28 -67 -53 -70 -56 -3 -3 -27 -22 -53 -42 -26 -20 -54 -42 -61
-49 -8 -7 -46 -38 -86 -68 -40 -30 -93 -72 -119 -93 -67 -55 -85 -70 -116 -92
-16 -11 -33 -25 -39 -30 -6 -6 -42 -35 -81 -65 -38 -30 -78 -62 -89 -70 -36
-29 -57 -55 -62 -77 -4 -13 -10 -23 -15 -23 -5 0 -6 -7 -3 -15 4 -8 1 -15 -5
-15 -7 0 -11 -6 -10 -12 1 -7 -3 -24 -9 -38 -6 -14 -23 -56 -38 -95 -14 -38
-32 -83 -39 -100 -7 -16 -25 -61 -40 -100 -15 -38 -31 -79 -36 -90 -15 -35
-51 -130 -53 -140 -1 -5 -8 -20 -14 -32 -7 -13 -10 -23 -6 -23 3 0 0 -7 -7
-16 -7 -9 -14 -21 -15 -28 -1 -6 -21 -58 -44 -116 -23 -58 -43 -109 -44 -115
-1 -5 -7 -19 -13 -30 -6 -11 -12 -24 -13 -30 -3 -12 -11 -33 -43 -112 -14 -34
-22 -64 -19 -67 3 -3 0 -6 -7 -6 -6 0 -11 -6 -10 -13 1 -6 -3 -25 -10 -42 -7
-16 -14 -38 -17 -49 -2 -10 -7 -23 -12 -30 -5 -6 -15 -29 -22 -51 -7 -22 -20
-56 -28 -75 -9 -19 -16 -38 -16 -42 -1 -3 -4 -10 -8 -14 -5 -4 -8 -16 -8 -26
0 -10 -5 -18 -11 -18 -5 0 -7 -5 -4 -10 4 -6 1 -17 -5 -25 -15 -18 -59 -17
432 -18 l397 0 20 24 c11 13 20 29 21 35 0 6 6 24 14 40 19 37 55 122 57 132
0 4 6 13 12 21 6 7 12 20 13 29 2 8 8 18 14 22 7 4 11 10 11 14 -3 15 12 56
20 56 5 0 8 3 7 7 -4 13 34 103 43 103 5 0 8 3 6 8 -2 8 33 93 43 102 3 3 6
10 7 16 1 7 14 37 28 67 14 31 25 60 25 64 0 5 5 14 12 21 6 6 13 17 14 24 1
7 14 40 30 73 15 33 27 63 26 68 -1 4 2 7 8 7 6 0 9 3 8 8 -1 4 9 30 22 57 13
28 23 56 23 63 0 6 4 12 8 12 4 0 13 17 20 38 6 20 15 42 19 47 4 6 26 54 50
108 31 71 51 103 74 119 17 12 34 27 38 33 4 5 8 7 8 3 0 -5 8 -1 18 8 9 8 42
34 73 57 108 81 122 92 135 105 7 6 15 12 19 12 5 0 67 46 101 75 7 6 24 19
40 30 15 11 32 25 38 30 6 6 29 22 52 38 22 15 50 36 62 47 12 11 24 20 27 20
3 0 47 33 99 73 52 39 107 81 122 92 15 11 33 26 41 33 7 7 13 10 13 6 0 -4 8
1 19 12 25 25 60 54 67 54 3 0 36 25 74 55 38 30 71 55 74 55 6 0 45 32 72 58
8 7 14 11 14 7 0 -4 7 0 15 7 21 19 34 29 95 73 61 44 74 54 95 73 7 6 18 12
23 12 6 0 13 7 16 16 3 8 9 13 13 11 5 -2 18 6 30 19 l23 23 -42 38 c-23 21
-62 58 -87 81 -25 24 -72 66 -103 94 -32 27 -85 77 -118 109 -34 32 -63 59
-66 59 -3 0 -26 21 -53 48 -41 40 -147 139 -249 232 -15 14 -82 75 -147 137
-66 61 -129 120 -141 130 -28 24 -235 217 -290 271 -24 23 -46 42 -47 42 -2 0
-37 32 -77 70 -40 39 -76 71 -79 71 -24 5 -1191 5 -1192 0z"/>
</g>
</svg>
